NotoSansDisplay-Italic.ufo
<glyph name="Eth" format="2">
  <advance width="635"/>
  <unicode hex="00D0"/>
  <anchor x="264" y="0" name="bottom"/>
  <anchor x="395" y="714" name="top"/>
  <anchor x="358" y="357" name="center"/>
  <anchor x="713" y="714" name="topright"/>
  <outline>
    <contour>
      <point x="357" y="392" type="line"/>
      <point x="52" y="392" type="line"/>
      <point x="34" y="315" type="line"/>
      <point x="339" y="315" type="line"/>
    </contour>
    <component base="D"/>
  </outline>
</glyph>
<glyph name="uni018E" format="2">
  <advance width="490"/>
  <unicode hex="018E"/>
  <anchor x="171" y="0" name="bottom"/>
  <anchor x="307" y="714" name="top"/>
  <outline>
    <contour>
      <point x="3" y="0" type="line"/>
      <point x="350" y="0" type="line"/>
      <point x="501" y="714" type="line"/>
      <point x="154" y="714" type="line"/>
      <point x="136" y="635" type="line"/>
      <point x="395" y="635" type="line"/>
      <point x="348" y="412" type="line"/>
      <point x="107" y="412" type="line"/>
      <point x="91" y="334" type="line"/>
      <point x="332" y="334" type="line"/>
      <point x="279" y="79" type="line"/>
      <point x="21" y="79" type="line"/>
    </contour>
  </outline>
</glyph>
<glyph name="uni0191" format="2">
  <advance width="557"/>
  <unicode hex="0191"/>
  <anchor x="101" y="0" name="bottom"/>
  <anchor x="477" y="714" name="top"/>
  <anchor x="646" y="714" name="topright"/>
  <outline>
    <contour>
      <point x="115" y="-11" type="curve" smooth="yes"/>
      <point x="216" y="-11"/>
      <point x="260" y="61"/>
      <point x="279" y="151" type="curve" smooth="yes"/>
      <point x="318" y="333" type="line"/>
      <point x="539" y="333" type="line"/>
      <point x="557" y="412" type="line"/>
      <point x="335" y="412" type="line"/>
      <point x="380" y="635" type="line"/>
      <point x="619" y="635" type="line"/>
      <point x="635" y="714" type="line"/>
      <point x="309" y="714" type="line"/>
      <point x="190" y="152" type="line" smooth="yes"/>
      <point x="179" y="100"/>
      <point x="158" y="61"/>
      <point x="112" y="61" type="curve" smooth="yes"/>
      <point x="74" y="61"/>
      <point x="53" y="84"/>
      <point x="53" y="124" type="curve" smooth="yes"/>
      <point x="53" y="135"/>
      <point x="54" y="147"/>
      <point x="59" y="164" type="curve"/>
      <point x="-15" y="193" type="line"/>
      <point x="-26" y="173"/>
      <point x="-31" y="148"/>
      <point x="-31" y="122" type="curve" smooth="yes"/>
      <point x="-31" y="43"/>
      <point x="20" y="-11"/>
    </contour>
  </outline>
</glyph>
<glyph name="florin" format="2">
  <advance width="406"/>
  <unicode hex="0192"/>
  <anchor x="93" y="0" name="bottom"/>
  <anchor x="441" y="765" name="top"/>
  <anchor x="543" y="765" name="topright"/>
  <outline>
    <contour>
      <point x="93" y="-15" type="curve" smooth="yes"/>
      <point x="202" y="-15"/>
      <point x="240" y="56"/>
      <point x="259" y="147" type="curve" smooth="yes"/>
      <point x="327" y="469" type="line"/>
      <point x="436" y="469" type="line"/>
      <point x="450" y="536" type="line"/>
      <point x="341" y="536" type="line"/>
      <point x="352" y="587" type="line" smooth="yes"/>
      <point x="370" y="670"/>
      <point x="397" y="693"/>
      <point x="445" y="693" type="curve"/>
      <point x="470" y="693"/>
      <point x="490" y="686"/>
      <point x="508" y="679" type="curve"/>
      <point x="532" y="746" type="line"/>
      <point x="511" y="756"/>
      <point x="474" y="765"/>
      <point x="441" y="765" type="curve"/>
      <point x="347" y="765"/>
      <point x="296" y="724"/>
      <point x="265" y="587" type="curve" smooth="yes"/>
      <point x="254" y="539" type="line"/>
      <point x="160" y="506" type="line"/>
      <point x="152" y="469" type="line"/>
      <point x="240" y="469" type="line"/>
      <point x="174" y="152" type="line" smooth="yes"/>
      <point x="161" y="91"/>
      <point x="140" y="57"/>
      <point x="96" y="57" type="curve" smooth="yes"/>
      <point x="66" y="57"/>
      <point x="49" y="77"/>
      <point x="49" y="106" type="curve" smooth="yes"/>
      <point x="49" y="121"/>
      <point x="51" y="136"/>
      <point x="55" y="147" type="curve"/>
      <point x="-22" y="167" type="line"/>
      <point x="-31" y="149"/>
      <point x="-35" y="124"/>
      <point x="-35" y="101" type="curve" smooth="yes"/>
      <point x="-35" y="30"/>
      <point x="18" y="-15"/>
    </contour>
  </outline>
</glyph>
<glyph name="uni0289" format="2">
  <advance width="551"/>
  <unicode hex="0289"/>
  <anchor x="182" y="0" name="bottom"/>
  <anchor x="332" y="536" name="top"/>
  <anchor x="578" y="536" name="topright"/>
  <outline>
    <contour>
      <point x="2" y="253" type="line"/>
      <point x="555" y="253" type="line"/>
      <point x="570" y="324" type="line"/>
      <point x="17" y="324" type="line"/>
    </contour>
    <component base="u"/>
  </outline>
</glyph>
<glyph name="kturned" format="2">
  <advance width="475"/>
  <unicode hex="029E"/>
  <anchor x="133" y="-240" name="bottom"/>
  <anchor x="298" y="536" name="top"/>
  <outline>
    <contour>
      <point x="201" y="-240" type="line"/>
      <point x="289" y="-240" type="line"/>
      <point x="454" y="536" type="line"/>
      <point x="365" y="536" type="line"/>
      <point x="326" y="342" type="line"/>
      <point x="258" y="285" type="line"/>
      <point x="155" y="536" type="line"/>
      <point x="58" y="536" type="line"/>
      <point x="190" y="230" type="line"/>
      <point x="-32" y="0" type="line"/>
      <point x="71" y="0" type="line"/>
      <point x="313" y="259" type="line"/>
      <point x="315" y="259" type="line"/>
      <point x="309" y="240"/>
      <point x="292" y="185"/>
      <point x="270" y="78" type="curve" smooth="yes"/>
    </contour>
  </outline>
</glyph>
<glyph name="doublemacroncomb" format="2">
  <unicode hex="035E"/>
  <anchor x="213" y="536" name="_top"/>
  <anchor x="238" y="677" name="top"/>
  <outline>
    <contour>
      <point x="-7" y="606" type="line"/>
      <point x="462" y="606" type="line"/>
      <point x="477" y="677" type="line"/>
      <point x="9" y="677" type="line"/>
    </contour>
  </outline>
</glyph>
<glyph name="tildedoublecomb" format="2">
  <unicode hex="0360"/>
  <anchor x="323" y="536" name="_top"/>
  <anchor x="355" y="736" name="top"/>
  <outline>
    <contour>
      <point x="0" y="607" type="curve"/>
      <point x="53" y="607" type="line"/>
      <point x="69" y="642"/>
      <point x="104" y="669"/>
      <point x="172" y="669" type="curve" smooth="yes"/>
      <point x="303" y="669"/>
      <point x="393" y="608"/>
      <point x="527" y="608" type="curve" smooth="yes"/>
      <point x="611" y="608"/>
      <point x="672" y="647"/>
      <point x="705" y="736" type="curve"/>
      <point x="652" y="736" type="line"/>
      <point x="635" y="699"/>
      <point x="600" y="674"/>
      <point x="532" y="674" type="curve" smooth="yes"/>
      <point x="399" y="674"/>
      <point x="309" y="735"/>
      <point x="177" y="735" type="curve" smooth="yes"/>
      <point x="91" y="735"/>
      <point x="25" y="693"/>
    </contour>
  </outline>
</glyph>
<glyph name="arrowdoublerightbelowcomb" format="2">
  <unicode hex="0362"/>
  <anchor x="211" y="15" name="_bottom"/>
  <anchor x="162" y="-219" name="bottom"/>
  <outline>
    <contour>
      <point x="415" y="-219" type="line"/>
      <point x="535" y="-127" type="line"/>
      <point x="417" y="-35" type="line"/>
      <point x="416" y="-97" type="line"/>
      <point x="-159" y="-97" type="line"/>
      <point x="-172" y="-157" type="line"/>
      <point x="415" y="-157" type="line"/>
    </contour>
  </outline>
</glyph>
<glyph name="uni0463" format="2">
  <advance width="532"/>
  <unicode hex="0463"/>
  <anchor x="213" y="0" name="bottom"/>
  <anchor x="350" y="644" name="top"/>
  <outline>
    <contour>
      <point x="261" y="-10" type="curve" smooth="yes"/>
      <point x="401" y="-10"/>
      <point x="475" y="70"/>
      <point x="475" y="175" type="curve" smooth="yes"/>
      <point x="475" y="264"/>
      <point x="425" y="315"/>
      <point x="317" y="315" type="curve" smooth="yes"/>
      <point x="279" y="315"/>
      <point x="237" y="309"/>
      <point x="205" y="303" type="curve"/>
      <point x="240" y="460" type="line"/>
      <point x="373" y="460" type="line"/>
      <point x="389" y="535" type="line"/>
      <point x="256" y="535" type="line"/>
      <point x="278" y="644" type="line"/>
      <point x="190" y="644" type="line"/>
      <point x="168" y="535" type="line"/>
      <point x="62" y="535" type="line"/>
      <point x="46" y="460" type="line"/>
      <point x="151" y="460" type="line"/>
      <point x="104" y="238" type="line" smooth="yes"/>
      <point x="98" y="208"/>
      <point x="93" y="171"/>
      <point x="93" y="143" type="curve" smooth="yes"/>
      <point x="93" y="41"/>
      <point x="151" y="-10"/>
    </contour>
    <contour>
      <point x="271" y="62" type="curve" smooth="yes"/>
      <point x="209" y="62"/>
      <point x="179" y="91"/>
      <point x="179" y="150" type="curve" smooth="yes"/>
      <point x="179" y="170"/>
      <point x="182" y="193"/>
      <point x="190" y="233" type="curve"/>
      <point x="222" y="239"/>
      <point x="262" y="243"/>
      <point x="294" y="243" type="curve" smooth="yes"/>
      <point x="358" y="243"/>
      <point x="389" y="220"/>
      <point x="389" y="167" type="curve" smooth="yes"/>
      <point x="389" y="105"/>
      <point x="347" y="62"/>
    </contour>
  </outline>
</glyph>
<glyph name="uni0488" format="2">
  <advance width="940"/>
  <unicode hex="0488"/>
  <outline>
    <contour>
      <point x="641" y="462" type="curve"/>
      <point x="676" y="462" type="line"/>
      <point x="680" y="501"/>
      <point x="700" y="505"/>
      <point x="738" y="505" type="curve"/>
      <point x="770" y="505"/>
      <point x="796" y="499"/>
      <point x="800" y="462" type="curve"/>
      <point x="837" y="462" type="line"/>
      <point x="834" y="518"/>
      <point x="800" y="557"/>
      <point x="739" y="557" type="curve"/>
      <point x="675" y="557"/>
      <point x="644" y="520"/>
    </contour>
    <contour>
      <point x="101" y="-20" type="curve"/>
      <point x="136" y="-20" type="line"/>
      <point x="140" y="19"/>
      <point x="160" y="23"/>
      <point x="198" y="23" type="curve"/>
      <point x="230" y="23"/>
      <point x="256" y="17"/>
      <point x="260" y="-20" type="curve"/>
      <point x="297" y="-20" type="line"/>
      <point x="294" y="36"/>
      <point x="260" y="75"/>
      <point x="199" y="75" type="curve"/>
      <point x="135" y="75"/>
      <point x="105" y="38"/>
    </contour>
    <contour>
      <point x="366" y="-156" type="curve"/>
      <point x="401" y="-156" type="line"/>
      <point x="405" y="-117"/>
      <point x="425" y="-113"/>
      <point x="463" y="-113" type="curve"/>
      <point x="494" y="-113"/>
      <point x="521" y="-119"/>
      <point x="524" y="-156" type="curve"/>
      <point x="561" y="-156" type="line"/>
      <point x="558" y="-100"/>
      <point x="524" y="-61"/>
      <point x="464" y="-61" type="curve"/>
      <point x="400" y="-61"/>
      <point x="369" y="-98"/>
    </contour>
    <contour>
      <point x="21" y="224" type="curve"/>
      <point x="56" y="224" type="line"/>
      <point x="60" y="263"/>
      <point x="80" y="267"/>
      <point x="118" y="267" type="curve"/>
      <point x="150" y="267"/>
      <point x="176" y="261"/>
      <point x="180" y="224" type="curve"/>
      <point x="217" y="224" type="line"/>
      <point x="213" y="280"/>
      <point x="180" y="319"/>
      <point x="119" y="319" type="curve"/>
      <point x="55" y="319"/>
      <point x="24" y="282"/>
    </contour>
    <contour>
      <point x="106" y="462" type="curve"/>
      <point x="141" y="462" type="line"/>
      <point x="146" y="501"/>
      <point x="166" y="505"/>
      <point x="204" y="505" type="curve"/>
      <point x="235" y="505"/>
      <point x="261" y="499"/>
      <point x="265" y="462" type="curve"/>
      <point x="302" y="462" type="line"/>
      <point x="299" y="518"/>
      <point x="265" y="557"/>
      <point x="204" y="557" type="curve"/>
      <point x="140" y="557"/>
      <point x="110" y="520"/>
    </contour>
    <contour>
      <point x="636" y="-20" type="curve"/>
      <point x="671" y="-20" type="line"/>
      <point x="675" y="19"/>
      <point x="695" y="23"/>
      <point x="733" y="23" type="curve"/>
      <point x="765" y="23"/>
      <point x="791" y="17"/>
      <point x="795" y="-20" type="curve"/>
      <point x="832" y="-20" type="line"/>
      <point x="828" y="36"/>
      <point x="795" y="75"/>
      <point x="734" y="75" type="curve"/>
      <point x="670" y="75"/>
      <point x="639" y="38"/>
    </contour>
    <contour>
      <point x="727" y="224" type="curve"/>
      <point x="762" y="224" type="line"/>
      <point x="766" y="263"/>
      <point x="786" y="267"/>
      <point x="824" y="267" type="curve"/>
      <point x="856" y="267"/>
      <point x="882" y="261"/>
      <point x="886" y="224" type="curve"/>
      <point x="923" y="224" type="line"/>
      <point x="919" y="280"/>
      <point x="886" y="319"/>
      <point x="825" y="319" type="curve"/>
      <point x="761" y="319"/>
      <point x="730" y="282"/>
    </contour>
    <contour>
      <point x="374" y="601" type="curve"/>
      <point x="409" y="601" type="line"/>
      <point x="413" y="640"/>
      <point x="433" y="644"/>
      <point x="471" y="644" type="curve"/>
      <point x="502" y="644"/>
      <point x="529" y="638"/>
      <point x="532" y="601" type="curve"/>
      <point x="569" y="601" type="line"/>
      <point x="566" y="657"/>
      <point x="532" y="696"/>
      <point x="472" y="696" type="curve"/>
      <point x="408" y="696"/>
      <point x="377" y="659"/>
    </contour>
  </outline>
</glyph>
<glyph name="uni0489" format="2">
  <advance width="908"/>
  <unicode hex="0489"/>
  <outline>
    <contour>
      <point x="665" y="449" type="line"/>
      <point x="702" y="478"/>
      <point x="758" y="516"/>
      <point x="804" y="546" type="curve"/>
      <point x="772" y="579" type="line"/>
      <point x="722" y="559"/>
      <point x="664" y="531"/>
      <point x="621" y="505" type="curve"/>
      <point x="620" y="497" type="line"/>
    </contour>
    <contour>
      <point x="142" y="-60" type="line"/>
      <point x="192" y="-40"/>
      <point x="250" y="-12"/>
      <point x="293" y="14" type="curve"/>
      <point x="294" y="22" type="line"/>
      <point x="249" y="70" type="line"/>
      <point x="211" y="41"/>
      <point x="156" y="3"/>
      <point x="110" y="-27" type="curve"/>
    </contour>
    <contour>
      <point x="177" y="216" type="curve"/>
      <point x="184" y="221" type="line"/>
      <point x="185" y="289" type="line"/>
      <point x="139" y="296"/>
      <point x="75" y="310"/>
      <point x="22" y="323" type="curve"/>
      <point x="22" y="276" type="line"/>
      <point x="70" y="253"/>
      <point x="130" y="229"/>
    </contour>
    <contour>
      <point x="402" y="-188" type="curve"/>
      <point x="446" y="-188" type="line"/>
      <point x="469" y="-137"/>
      <point x="492" y="-74"/>
      <point x="505" y="-24" type="curve"/>
      <point x="501" y="-17" type="line"/>
      <point x="436" y="-17" type="line"/>
      <point x="429" y="-65"/>
      <point x="415" y="-133"/>
    </contour>
    <contour>
      <point x="725" y="-103" type="curve"/>
      <point x="756" y="-69" type="line"/>
      <point x="738" y="-17"/>
      <point x="712" y="44"/>
      <point x="688" y="89" type="curve"/>
      <point x="680" y="90" type="line"/>
      <point x="634" y="42" type="line"/>
      <point x="661" y="3"/>
      <point x="697" y="-55"/>
    </contour>
    <contour>
      <point x="233" y="428" type="line"/>
      <point x="279" y="476" type="line"/>
      <point x="252" y="515"/>
      <point x="216" y="573"/>
      <point x="188" y="621" type="curve"/>
      <point x="156" y="587" type="line"/>
      <point x="175" y="535"/>
      <point x="201" y="474"/>
      <point x="225" y="429" type="curve"/>
    </contour>
    <contour>
      <point x="892" y="216" type="curve"/>
      <point x="892" y="263" type="line"/>
      <point x="844" y="286"/>
      <point x="784" y="310"/>
      <point x="737" y="323" type="curve"/>
      <point x="730" y="318" type="line"/>
      <point x="729" y="250" type="line"/>
      <point x="775" y="243"/>
      <point x="839" y="229"/>
    </contour>
    <contour>
      <point x="414" y="557" type="line"/>
      <point x="479" y="557" type="line"/>
      <point x="486" y="605"/>
      <point x="500" y="673"/>
      <point x="513" y="728" type="curve"/>
      <point x="469" y="728" type="line"/>
      <point x="446" y="677"/>
      <point x="423" y="614"/>
      <point x="410" y="564" type="curve"/>
    </contour>
  </outline>
</glyph>
<glyph name="uni1ABA" format="2">
  <unicode hex="1ABA"/>
  <anchor x="-45" y="90" name="_bottom"/>
  <anchor x="-85" y="-245" name="bottom"/>
  <outline>
    <contour>
      <point x="-193" y="-185" type="line"/>
      <point x="-112" y="-185" type="line"/>
      <point x="28" y="40" type="line"/>
      <point x="-51" y="40" type="line"/>
    </contour>
    <contour>
      <point x="-156" y="-245" type="curve"/>
      <point x="-109" y="-245"/>
      <point x="-84" y="-204"/>
      <point x="-84" y="-163" type="curve" smooth="yes"/>
      <point x="-84" y="-128"/>
      <point x="-103" y="-110"/>
      <point x="-131" y="-110" type="curve"/>
      <point x="-182" y="-110"/>
      <point x="-205" y="-149"/>
      <point x="-205" y="-193" type="curve"/>
      <point x="-205" y="-226"/>
      <point x="-188" y="-245"/>
    </contour>
  </outline>
</glyph>
<glyph name="uni1D24" format="2">
  <advance width="415"/>
  <unicode hex="1D24"/>
  <anchor x="154" y="0" name="bottom"/>
  <anchor x="268" y="536" name="top"/>
  <outline>
    <contour>
      <point x="177" y="-7" type="curve" smooth="yes"/>
      <point x="239" y="-7"/>
      <point x="288" y="7"/>
      <point x="327" y="27" type="curve"/>
      <point x="328" y="102" type="line"/>
      <point x="283" y="81"/>
      <point x="242" y="64"/>
      <point x="185" y="64" type="curve" smooth="yes"/>
      <point x="133" y="64"/>
      <point x="106" y="91"/>
      <point x="106" y="130" type="curve" smooth="yes"/>
      <point x="106" y="188"/>
      <point x="144" y="203"/>
      <point x="235" y="237" type="curve" smooth="yes"/>
      <point x="340" y="276"/>
      <point x="401" y="320"/>
      <point x="401" y="420" type="curve" smooth="yes"/>
      <point x="401" y="493"/>
      <point x="350" y="543"/>
      <point x="256" y="543" type="curve" smooth="yes"/>
      <point x="207" y="543"/>
      <point x="156" y="530"/>
      <point x="112" y="509" type="curve"/>
      <point x="135" y="437" type="line"/>
      <point x="176" y="455"/>
      <point x="215" y="471"/>
      <point x="248" y="471" type="curve" smooth="yes"/>
      <point x="287" y="471"/>
      <point x="314" y="448"/>
      <point x="314" y="414" type="curve" smooth="yes"/>
      <point x="314" y="356"/>
      <point x="273" y="332"/>
      <point x="196" y="304" type="curve" smooth="yes"/>
      <point x="95" y="267"/>
      <point x="20" y="234"/>
      <point x="20" y="125" type="curve" smooth="yes"/>
      <point x="20" y="45"/>
      <point x="79" y="-7"/>
    </contour>
  </outline>
</glyph>
<glyph name="uni1D7A" format="2">
  <advance width="852"/>
  <unicode hex="1D7A"/>
  <anchor x="134" y="0" name="bottom_1"/>
  <anchor x="522" y="0" name="bottom_2"/>
  <anchor x="126" y="268" name="center_1"/>
  <anchor x="576" y="268" name="center_2"/>
  <anchor x="215" y="658" name="top_1"/>
  <anchor x="531" y="760" name="top_2"/>
  <anchor x="354" y="840" name="topright_1"/>
  <anchor x="883" y="760" name="topright_2"/>
  <outline>
    <contour>
      <point x="-23" y="-75" type="line"/>
      <point x="43" y="-75" type="line"/>
      <point x="838" y="760" type="line"/>
      <point x="771" y="760" type="line"/>
    </contour>
    <component base="t"/>
    <component base="h" xOffset="301"/>
  </outline>
</glyph>
<glyph name="LL-middleWelsh" format="2">
  <advance width="682"/>
  <unicode hex="1EFA"/>
  <anchor x="427" y="0" name="bottom"/>
  <anchor x="459" y="714" name="top"/>
  <anchor x="383" y="357" name="center"/>
  <anchor x="637" y="714" name="topright"/>
  <outline>
    <contour>
      <point x="42" y="0" type="line"/>
      <point x="131" y="0" type="line"/>
      <point x="282" y="714" type="line"/>
      <point x="193" y="714" type="line"/>
    </contour>
    <component base="L" xOffset="225"/>
  </outline>
</glyph>
<glyph name="ll-middleWelsh" format="2">
  <advance width="496"/>
  <unicode hex="1EFB"/>
  <anchor x="310" y="0" name="bottom"/>
  <anchor x="469" y="760" name="top"/>
  <anchor x="362" y="268" name="center_1"/>
  <anchor x="124" y="268" name="center_2"/>
  <anchor x="571" y="760" name="topright_1"/>
  <anchor x="333" y="760" name="topright_2"/>
  <outline>
    <contour>
      <point x="80" y="584" type="line"/>
      <point x="547" y="584" type="line"/>
      <point x="563" y="657" type="line"/>
      <point x="96" y="657" type="line"/>
    </contour>
    <component base="l" xOffset="238"/>
    <component base="l"/>
  </outline>
</glyph>
<glyph name="uni1FEF" format="2">
  <advance width="548"/>
  <unicode hex="1FEF"/>
  <anchor x="349" y="535" name="_top"/>
  <anchor x="353" y="764" name="top"/>
  <outline>
    <contour>
      <point x="355" y="606" type="curve"/>
      <point x="397" y="606" type="line"/>
      <point x="399" y="618" type="line"/>
      <point x="393" y="657"/>
      <point x="387" y="718"/>
      <point x="387" y="764" type="curve"/>
      <point x="303" y="764" type="line"/>
      <point x="301" y="754" type="line"/>
      <point x="311" y="712"/>
      <point x="332" y="653"/>
    </contour>
  </outline>
</glyph>
<glyph name="quotedblleft" format="2">
  <advance width="346"/>
  <unicode hex="201C"/>
  <outline>
    <contour>
      <point x="242" y="469" type="line"/>
      <point x="336" y="469" type="line"/>
      <point x="360" y="538"/>
      <point x="400" y="635"/>
      <point x="433" y="714" type="curve"/>
      <point x="367" y="714" type="line"/>
      <point x="321" y="641"/>
      <point x="269" y="551"/>
      <point x="238" y="480" type="curve"/>
    </contour>
    <contour>
      <point x="65" y="469" type="line"/>
      <point x="159" y="469" type="line"/>
      <point x="184" y="538"/>
      <point x="222" y="635"/>
      <point x="255" y="714" type="curve"/>
      <point x="189" y="714" type="line"/>
      <point x="143" y="641"/>
      <point x="93" y="551"/>
      <point x="62" y="480" type="curve"/>
    </contour>
  </outline>
</glyph>
<glyph name="parenrightsuperior" format="2">
  <advance width="180"/>
  <unicode hex="207E"/>
  <outline>
    <contour>
      <point x="5" y="231" type="curve"/>
      <point x="71" y="231" type="line"/>
      <point x="172" y="338"/>
      <point x="218" y="450"/>
      <point x="218" y="588" type="curve" smooth="yes"/>
      <point x="218" y="652"/>
      <point x="204" y="712"/>
      <point x="177" y="765" type="curve"/>
      <point x="121" y="765" type="line"/>
      <point x="142" y="714"/>
      <point x="153" y="656"/>
      <point x="153" y="589" type="curve" smooth="yes"/>
      <point x="153" y="460"/>
      <point x="103" y="340"/>
    </contour>
  </outline>
</glyph>
<glyph name="uni20A5" format="2">
  <advance width="833"/>
  <unicode hex="20A5"/>
  <anchor x="360" y="0" name="bottom"/>
  <anchor x="474" y="536" name="top"/>
  <anchor x="870" y="536" name="topright"/>
  <outline>
    <contour>
      <point x="127" y="-110" type="line"/>
      <point x="198" y="-110" type="line"/>
      <point x="695" y="666" type="line"/>
      <point x="625" y="666" type="line"/>
    </contour>
    <component base="m"/>
  </outline>
</glyph>
<glyph name="uni20A9" format="2">
  <advance width="597"/>
  <unicode hex="20A9"/>
  <outline>
    <contour>
      <point x="70" y="0" type="line"/>
      <point x="160" y="0" type="line"/>
      <point x="253" y="257" type="line"/>
      <point x="352" y="257" type="line"/>
      <point x="340" y="0" type="line"/>
      <point x="428" y="0" type="line"/>
      <point x="519" y="257" type="line"/>
      <point x="592" y="257" type="line"/>
      <point x="607" y="321" type="line"/>
      <point x="543" y="321" type="line"/>
      <point x="571" y="403" type="line"/>
      <point x="623" y="403" type="line"/>
      <point x="638" y="467" type="line"/>
      <point x="595" y="467" type="line"/>
      <point x="683" y="714" type="line"/>
      <point x="605" y="714" type="line"/>
      <point x="521" y="467" type="line"/>
      <point x="427" y="467" type="line"/>
      <point x="439" y="714" type="line"/>
      <point x="356" y="714" type="line"/>
      <point x="264" y="467" type="line"/>
      <point x="171" y="467" type="line"/>
      <point x="188" y="714" type="line"/>
      <point x="112" y="714" type="line"/>
      <point x="97" y="467" type="line"/>
      <point x="52" y="467" type="line"/>
      <point x="38" y="403" type="line"/>
      <point x="92" y="403" type="line"/>
      <point x="88" y="321" type="line"/>
      <point x="21" y="321" type="line"/>
      <point x="7" y="257" type="line"/>
      <point x="84" y="257" type="line"/>
    </contour>
    <contour>
      <point x="140" y="108" type="line"/>
      <point x="155" y="257" type="line"/>
      <point x="186" y="257" type="line"/>
    </contour>
    <contour>
      <point x="161" y="321" type="line"/>
      <point x="167" y="403" type="line"/>
      <point x="239" y="403" type="line"/>
      <point x="210" y="321" type="line"/>
    </contour>
    <contour>
      <point x="404" y="104" type="line"/>
      <point x="417" y="257" type="line"/>
      <point x="448" y="257" type="line"/>
    </contour>
    <contour>
      <point x="276" y="321" type="line"/>
      <point x="307" y="403" type="line"/>
      <point x="359" y="403" type="line"/>
      <point x="355" y="321" type="line"/>
    </contour>
    <contour>
      <point x="420" y="321" type="line"/>
      <point x="424" y="403" type="line"/>
      <point x="499" y="403" type="line"/>
      <point x="472" y="321" type="line"/>
    </contour>
    <contour>
      <point x="329" y="467" type="line"/>
      <point x="378" y="620" type="line"/>
      <point x="363" y="467" type="line"/>
    </contour>
  </outline>
</glyph>
<glyph name="uni2DF5" format="2">
  <unicode hex="2DF5"/>
  <anchor x="57" y="536" name="_top"/>
  <anchor x="118" y="834" name="top"/>
  <anchor x="306" y="834" name="topright"/>
  <outline>
    <contour>
      <point x="14" y="616" type="curve" smooth="yes"/>
      <point x="38" y="616"/>
      <point x="58" y="621"/>
      <point x="75" y="629" type="curve"/>
      <point x="75" y="658" type="line"/>
      <point x="57" y="651"/>
      <point x="40" y="645"/>
      <point x="19" y="645" type="curve" smooth="yes"/>
      <point x="-11" y="645"/>
      <point x="-29" y="664"/>
      <point x="-29" y="696" type="curve" smooth="yes"/>
      <point x="-29" y="755"/>
      <point x="4" y="807"/>
      <point x="68" y="807" type="curve" smooth="yes"/>
      <point x="172" y="807" type="line"/>
      <point x="127" y="620" type="line"/>
      <point x="167" y="620" type="line"/>
      <point x="211" y="807" type="line"/>
      <point x="279" y="807" type="line"/>
      <point x="286" y="835" type="line"/>
      <point x="68" y="835" type="line" smooth="yes"/>
      <point x="-23" y="835"/>
      <point x="-70" y="770"/>
      <point x="-70" y="695" type="curve" smooth="yes"/>
      <point x="-70" y="642"/>
      <point x="-36" y="616"/>
    </contour>
  </outline>
</glyph>
<glyph name="uniA65C" format="2">
  <advance width="964"/>
  <unicode hex="A65C"/>
  <outline>
    <contour>
      <point x="330" y="0" type="line"/>
      <point x="830" y="0" type="line"/>
      <point x="847" y="78" type="line"/>
      <point x="347" y="78" type="line"/>
    </contour>
    <component base="uniA656"/>
  </outline>
</glyph>
<glyph name="uniA666" format="2">
  <advance width="1037"/>
  <unicode hex="A666"/>
  <anchor x="346" y="0" name="bottom"/>
  <anchor x="488" y="714" name="top"/>
  <anchor x="883" y="714" name="topright"/>
  <outline>
    <contour>
      <point x="787" y="637" type="line"/>
      <point x="1111" y="637" type="line"/>
      <point x="1128" y="714" type="line"/>
      <point x="713" y="714" type="line"/>
    </contour>
    <component base="M" xOffset="2"/>
  </outline>
</glyph>
<glyph name="uniA671" format="2">
  <unicode hex="A671"/>
  <outline>
    <contour>
      <point x="-339" y="588" type="line"/>
      <point x="-269" y="588" type="line"/>
      <point x="-239" y="726" type="line"/>
      <point x="441" y="726" type="line"/>
      <point x="412" y="588" type="line"/>
      <point x="482" y="588" type="line"/>
      <point x="530" y="812" type="line"/>
      <point x="-291" y="812" type="line"/>
    </contour>
    <contour>
      <point x="-525" y="-289" type="line"/>
      <point x="296" y="-289" type="line"/>
      <point x="344" y="-65" type="line"/>
      <point x="274" y="-65" type="line"/>
      <point x="244" y="-203" type="line"/>
      <point x="-436" y="-203" type="line"/>
      <point x="-407" y="-65" type="line"/>
      <point x="-477" y="-65" type="line"/>
    </contour>
  </outline>
</glyph>
<glyph name="uniA680" format="2">
  <advance width="605"/>
  <unicode hex="A680"/>
  <anchor x="208" y="-187" name="bottom"/>
  <anchor x="456" y="714" name="top"/>
  <outline>
    <contour>
      <point x="303" y="636" type="line" smooth="yes"/>
      <point x="388" y="636" type="line" smooth="yes"/>
      <point x="449" y="920" type="line" smooth="yes"/>
      <point x="364" y="920" type="line" smooth="yes"/>
    </contour>
    <component base="afii10021"/>
  </outline>
</glyph>
<glyph name="uniA69E" format="2">
  <unicode hex="A69E"/>
  <outline>
    <contour>
      <point x="-58" y="131" type="line"/>
      <point x="6" y="131" type="line"/>
      <point x="35" y="270" type="line"/>
      <point x="145" y="275"/>
      <point x="215" y="359"/>
      <point x="215" y="474" type="curve" smooth="yes"/>
      <point x="215" y="549"/>
      <point x="177" y="597"/>
      <point x="108" y="610" type="curve"/>
      <point x="136" y="741" type="line"/>
      <point x="71" y="741" type="line"/>
      <point x="44" y="611" type="line"/>
      <point x="-66" y="605"/>
      <point x="-136" y="524"/>
      <point x="-136" y="410" type="curve" smooth="yes"/>
      <point x="-136" y="332"/>
      <point x="-98" y="283"/>
      <point x="-29" y="270" type="curve"/>
    </contour>
    <contour>
      <point x="-17" y="326" type="line"/>
      <point x="-48" y="333"/>
      <point x="-65" y="364"/>
      <point x="-65" y="411" type="curve" smooth="yes"/>
      <point x="-65" y="490"/>
      <point x="-29" y="547"/>
      <point x="31" y="556" type="curve"/>
    </contour>
    <contour>
      <point x="48" y="326" type="curve"/>
      <point x="96" y="555" type="line"/>
      <point x="128" y="548"/>
      <point x="146" y="518"/>
      <point x="146" y="472" type="curve" smooth="yes"/>
      <point x="146" y="392"/>
      <point x="108" y="334"/>
    </contour>
  </outline>
</glyph>
<glyph name="uniA73B" format="2">
  <advance width="729"/>
  <unicode hex="A73B"/>
  <anchor x="340" y="0" name="bottom"/>
  <anchor x="453" y="536" name="top"/>
  <outline>
    <contour>
      <point x="426" y="277" type="line"/>
      <point x="600" y="277" type="line"/>
      <point x="613" y="335" type="line"/>
      <point x="439" y="335" type="line"/>
    </contour>
    <component base="uniA739"/>
  </outline>
</glyph>
<glyph name="uniA748" format="2">
  <advance width="457"/>
  <unicode hex="A748"/>
  <anchor x="202" y="0" name="bottom"/>
  <anchor x="158" y="357" name="center"/>
  <anchor x="234" y="714" name="top"/>
  <anchor x="412" y="714" name="topright"/>
  <outline>
    <contour>
      <point x="83" y="555" type="line"/>
      <point x="357" y="555" type="line"/>
      <point x="373" y="632" type="line"/>
      <point x="99" y="632" type="line"/>
    </contour>
    <component base="L"/>
  </outline>
</glyph>
<glyph name="uniA749" format="2">
  <advance width="258"/>
  <unicode hex="A749"/>
  <anchor x="67" y="0" name="bottom"/>
  <anchor x="124" y="268" name="center"/>
  <anchor x="229" y="760" name="top"/>
  <anchor x="333" y="760" name="topright"/>
  <outline>
    <contour>
      <point x="87" y="606" type="line"/>
      <point x="315" y="606" type="line"/>
      <point x="328" y="670" type="line"/>
      <point x="100" y="670" type="line"/>
    </contour>
    <component base="l"/>
  </outline>
</glyph>
<glyph name="uniA750" format="2">
  <advance width="542"/>
  <unicode hex="A750"/>
  <anchor x="217" y="0" name="bottom"/>
  <anchor x="363" y="714" name="top"/>
  <anchor x="621" y="714" name="topright"/>
  <outline>
    <contour>
      <point x="-16" y="117" type="line"/>
      <point x="255" y="117" type="line"/>
      <point x="271" y="192" type="line"/>
      <point x="0" y="192" type="line"/>
    </contour>
    <component base="P"/>
  </outline>
</glyph>
<glyph name="uniA757" format="2">
  <advance width="551"/>
  <unicode hex="A757"/>
  <anchor x="320" y="-240" name="bottom"/>
  <anchor x="333" y="536" name="top"/>
  <anchor x="568" y="536" name="topright"/>
  <outline>
    <contour>
      <point x="155" y="-143" type="line"/>
      <point x="478" y="-143" type="line"/>
      <point x="492" y="-79" type="line"/>
      <point x="169" y="-79" type="line"/>
    </contour>
    <component base="q"/>
  </outline>
</glyph>
<glyph name="uniA759" format="2">
  <advance width="681"/>
  <unicode hex="A759"/>
  <anchor x="320" y="-240" name="bottom"/>
  <anchor x="333" y="536" name="top"/>
  <anchor x="568" y="536" name="topright"/>
  <outline>
    <contour>
      <point x="117" y="-232" type="line"/>
      <point x="577" y="172" type="line" smooth="yes"/>
      <point x="669" y="253"/>
      <point x="696" y="286"/>
      <point x="696" y="345" type="curve" smooth="yes"/>
      <point x="696" y="408"/>
      <point x="649" y="448"/>
      <point x="574" y="448" type="curve"/>
      <point x="574" y="407" type="line"/>
      <point x="623" y="407"/>
      <point x="646" y="383"/>
      <point x="646" y="346" type="curve" smooth="yes"/>
      <point x="646" y="304"/>
      <point x="629" y="277"/>
      <point x="557" y="214" type="curve" smooth="yes"/>
      <point x="88" y="-197" type="line"/>
    </contour>
    <component base="q"/>
  </outline>
</glyph>
<glyph name="uniA75C" format="2">
  <advance width="556"/>
  <unicode hex="A75C"/>
  <outline>
    <contour>
      <point x="28" y="138" type="line"/>
      <point x="520" y="138" type="line"/>
      <point x="536" y="213" type="line"/>
      <point x="173" y="213" type="line"/>
      <point x="175" y="216" type="line"/>
      <point x="301" y="331" type="line" smooth="yes"/>
      <point x="417" y="438"/>
      <point x="468" y="492"/>
      <point x="468" y="589" type="curve" smooth="yes"/>
      <point x="468" y="670"/>
      <point x="407" y="724"/>
      <point x="320" y="724" type="curve" smooth="yes"/>
      <point x="241" y="724"/>
      <point x="192" y="695"/>
      <point x="134" y="645" type="curve"/>
      <point x="177" y="586" type="line"/>
      <point x="225" y="629"/>
      <point x="263" y="648"/>
      <point x="303" y="648" type="curve" smooth="yes"/>
      <point x="350" y="648"/>
      <point x="374" y="619"/>
      <point x="374" y="577" type="curve" smooth="yes"/>
      <point x="374" y="503"/>
      <point x="324" y="460"/>
      <point x="199" y="344" type="curve" smooth="yes"/>
      <point x="42" y="198" type="line"/>
    </contour>
    <contour>
      <point x="327" y="0" type="line"/>
      <point x="413" y="0" type="line"/>
      <point x="490" y="357" type="line"/>
      <point x="403" y="357" type="line"/>
    </contour>
  </outline>
</glyph>
<glyph name="uniA764" format="2">
  <advance width="539"/>
  <unicode hex="A764"/>
  <outline>
    <contour>
      <point x="38" y="0" type="line"/>
      <point x="127" y="0" type="line"/>
      <point x="151" y="116" type="line"/>
      <point x="212" y="116" type="line" smooth="yes"/>
      <point x="406" y="116"/>
      <point x="512" y="205"/>
      <point x="512" y="368" type="curve" smooth="yes"/>
      <point x="512" y="478"/>
      <point x="454" y="551"/>
      <point x="310" y="551" type="curve" smooth="yes"/>
      <point x="243" y="551" type="line"/>
      <point x="278" y="714" type="line"/>
      <point x="189" y="714" type="line"/>
    </contour>
    <contour>
      <point x="167" y="192" type="line"/>
      <point x="226" y="474" type="line"/>
      <point x="297" y="474" type="line" smooth="yes"/>
      <point x="380" y="474"/>
      <point x="421" y="442"/>
      <point x="421" y="364" type="curve" smooth="yes"/>
      <point x="421" y="245"/>
      <point x="344" y="192"/>
      <point x="226" y="192" type="curve" smooth="yes"/>
    </contour>
    <contour>
      <point x="90" y="603" type="line"/>
      <point x="347" y="603" type="line"/>
      <point x="362" y="668" type="line"/>
      <point x="104" y="668" type="line"/>
    </contour>
  </outline>
</glyph>
<glyph name="uniA765" format="2">
  <advance width="551"/>
  <unicode hex="A765"/>
  <anchor x="171" y="-240" name="bottom"/>
  <anchor x="384" y="760" name="top"/>
  <outline>
    <contour>
      <point x="81" y="606" type="line"/>
      <point x="393" y="606" type="line"/>
      <point x="406" y="669" type="line"/>
      <point x="94" y="669" type="line"/>
    </contour>
    <component base="thorn"/>
  </outline>
</glyph>
<glyph name="uniA768" format="2">
  <advance width="546"/>
  <unicode hex="A768"/>
  <outline>
    <contour>
      <point x="-76" y="-240" type="line"/>
      <point x="166" y="-240" type="line"/>
      <point x="177" y="-191" type="line"/>
      <point x="104" y="-171" type="line"/>
      <point x="138" y="-11" type="line"/>
      <point x="641" y="714" type="line"/>
      <point x="530" y="714" type="line"/>
      <point x="258" y="295" type="line" smooth="yes"/>
      <point x="220" y="236"/>
      <point x="197" y="198"/>
      <point x="172" y="155" type="curve"/>
      <point x="168" y="159" type="line"/>
      <point x="181" y="204"/>
      <point x="195" y="249"/>
      <point x="205" y="295" type="curve" smooth="yes"/>
      <point x="280" y="645" type="line"/>
      <point x="363" y="664" type="line"/>
      <point x="374" y="714" type="line"/>
      <point x="132" y="714" type="line"/>
      <point x="121" y="664" type="line"/>
      <point x="193" y="645" type="line"/>
      <point x="16" y="-171" type="line"/>
      <point x="-65" y="-191" type="line"/>
    </contour>
  </outline>
</glyph>
<glyph name="uniA772" format="2">
  <advance width="386"/>
  <unicode hex="A772"/>
  <anchor x="67" y="0" name="bottom"/>
  <anchor x="124" y="268" name="center"/>
  <anchor x="229" y="760" name="top"/>
  <anchor x="333" y="760" name="topright"/>
  <outline>
    <contour>
      <point x="46" y="-157" type="line"/>
      <point x="112" y="-157" type="line"/>
      <point x="337" y="228" type="line"/>
      <point x="272" y="228" type="line"/>
    </contour>
    <contour>
      <point x="92" y="0" type="line"/>
      <point x="339" y="0" type="line"/>
      <point x="354" y="72" type="line"/>
      <point x="107" y="72" type="line"/>
    </contour>
    <component base="l"/>
  </outline>
</glyph>
<glyph name="uniA774" format="2">
  <advance width="697"/>
  <unicode hex="A774"/>
  <anchor x="219" y="0" name="bottom"/>
  <anchor x="333" y="536" name="top"/>
  <anchor x="589" y="536" name="topright"/>
  <outline>
    <contour>
      <point x="357" y="-157" type="line"/>
      <point x="422" y="-157" type="line"/>
      <point x="648" y="228" type="line"/>
      <point x="583" y="228" type="line"/>
    </contour>
    <contour>
      <point x="403" y="0" type="line"/>
      <point x="650" y="0" type="line"/>
      <point x="665" y="72" type="line"/>
      <point x="418" y="72" type="line"/>
    </contour>
    <component base="n"/>
  </outline>
</glyph>
<glyph name="uniA781" format="2">
  <advance width="248"/>
  <unicode hex="A781"/>
  <outline>
    <contour>
      <point x="-26" y="-240" type="line"/>
      <point x="62" y="-240" type="line"/>
      <point x="227" y="537" type="line"/>
      <point x="139" y="537" type="line"/>
    </contour>
  </outline>
</glyph>
<glyph name="uniA792" format="2">
  <advance width="559"/>
  <unicode hex="A792"/>
  <anchor x="291" y="0" name="bottom"/>
  <anchor x="429" y="714" name="top"/>
  <anchor x="638" y="714" name="topright"/>
  <outline>
    <contour>
      <point x="24" y="315" type="line"/>
      <point x="348" y="315" type="line"/>
      <point x="364" y="391" type="line"/>
      <point x="40" y="391" type="line"/>
    </contour>
    <component base="C"/>
  </outline>
</glyph>
<glyph name="uniA794" format="2">
  <advance width="425"/>
  <unicode hex="A794"/>
  <outline>
    <contour>
      <point x="234" y="-10" type="curve"/>
      <point x="283" y="-10"/>
      <point x="324" y="1"/>
      <point x="357" y="17" type="curve"/>
      <point x="375" y="96" type="line"/>
      <point x="334" y="78"/>
      <point x="293" y="63"/>
      <point x="245" y="63" type="curve" smooth="yes"/>
      <point x="177" y="63"/>
      <point x="137" y="109"/>
      <point x="137" y="189" type="curve" smooth="yes"/>
      <point x="137" y="341"/>
      <point x="210" y="472"/>
      <point x="318" y="472" type="curve"/>
      <point x="359" y="472"/>
      <point x="393" y="459"/>
      <point x="420" y="447" type="curve"/>
      <point x="445" y="520" type="line"/>
      <point x="409" y="536"/>
      <point x="363" y="546"/>
      <point x="317" y="546" type="curve"/>
      <point x="151" y="546"/>
      <point x="47" y="379"/>
      <point x="47" y="187" type="curve" smooth="yes"/>
      <point x="47" y="55"/>
      <point x="123" y="-10"/>
    </contour>
    <contour>
      <point x="199" y="-198" type="curve" smooth="yes"/>
      <point x="276" y="-198"/>
      <point x="322" y="-151"/>
      <point x="341" y="-65" type="curve" smooth="yes"/>
      <point x="370" y="68" type="line"/>
      <point x="279" y="33" type="line"/>
      <point x="257" y="-70" type="line" smooth="yes"/>
      <point x="249" y="-106"/>
      <point x="229" y="-122"/>
      <point x="202" y="-122" type="curve" smooth="yes"/>
      <point x="185" y="-122"/>
      <point x="171" y="-117"/>
      <point x="160" y="-113" type="curve"/>
      <point x="145" y="-186" type="line"/>
      <point x="157" y="-191"/>
      <point x="177" y="-198"/>
    </contour>
  </outline>
</glyph>
<glyph name="uniA799" format="2">
  <advance width="306"/>
  <unicode hex="A799"/>
  <anchor x="-46" y="-240" name="bottom"/>
  <anchor x="341" y="765" name="top"/>
  <anchor x="443" y="765" name="topright"/>
  <outline>
    <contour>
      <point x="8" y="273" type="line"/>
      <point x="301" y="273" type="line"/>
      <point x="315" y="337" type="line"/>
      <point x="22" y="337" type="line"/>
    </contour>
    <component base="f"/>
  </outline>
</glyph>
<glyph name="uniA7AE" format="2">
  <advance width="275"/>
  <unicode hex="A7AE"/>
  <outline>
    <contour>
      <point x="-21" y="0" type="line"/>
      <point x="186" y="0" type="line"/>
      <point x="195" y="48" type="line"/>
      <point x="140" y="63" type="line"/>
      <point x="227" y="472" type="line"/>
      <point x="290" y="486" type="line"/>
      <point x="299" y="536" type="line"/>
      <point x="93" y="536" type="line"/>
      <point x="84" y="487" type="line"/>
      <point x="138" y="473" type="line"/>
      <point x="51" y="64" type="line"/>
      <point x="-10" y="49" type="line"/>
    </contour>
  </outline>
</glyph>
<glyph name="uniA7B9" format="2">
  <advance width="551"/>
  <unicode hex="A7B9"/>
  <anchor x="182" y="0" name="bottom"/>
  <anchor x="332" y="536" name="top"/>
  <anchor x="578" y="536" name="topright"/>
  <outline>
    <contour>
      <point x="24" y="-40" type="line"/>
      <point x="623" y="519" type="line"/>
      <point x="580" y="566" type="line"/>
      <point x="-19" y="6" type="line"/>
    </contour>
    <component base="u"/>
  </outline>
</glyph>
<glyph name="uniA7CA" format="2">
  <advance width="413"/>
  <unicode hex="A7CA"/>
  <anchor x="150" y="0" name="bottom"/>
  <anchor x="264" y="536" name="top"/>
  <anchor x="420" y="536" name="topright"/>
  <outline>
    <contour>
      <point x="19" y="245" type="line"/>
      <point x="387" y="245" type="line"/>
      <point x="401" y="310" type="line"/>
      <point x="33" y="310" type="line"/>
    </contour>
    <component base="s"/>
  </outline>
</glyph>
<glyph name="uniA7FA" format="2">
  <advance width="785"/>
  <unicode hex="A7FA"/>
  <anchor x="342" y="0" name="bottom"/>
  <anchor x="456" y="536" name="top"/>
  <outline>
    <contour>
      <point x="37" y="0" type="line"/>
      <point x="648" y="0" type="line"/>
      <point x="761" y="535" type="line"/>
      <point x="674" y="535" type="line"/>
      <point x="577" y="71" type="line"/>
      <point x="401" y="71" type="line"/>
      <point x="499" y="535" type="line"/>
      <point x="413" y="535" type="line"/>
      <point x="314" y="71" type="line"/>
      <point x="138" y="71" type="line"/>
      <point x="237" y="535" type="line"/>
      <point x="150" y="535" type="line"/>
    </contour>
  </outline>
</glyph>
<glyph name="uniA7FB" format="2">
  <advance width="451"/>
  <unicode hex="A7FB"/>
  <outline>
    <contour>
      <point x="222" y="0" type="line"/>
      <point x="312" y="0" type="line"/>
      <point x="463" y="714" type="line"/>
      <point x="122" y="714" type="line"/>
      <point x="105" y="635" type="line"/>
      <point x="357" y="635" type="line"/>
      <point x="304" y="382" type="line"/>
      <point x="68" y="382" type="line"/>
      <point x="50" y="303" type="line"/>
      <point x="286" y="303" type="line"/>
    </contour>
  </outline>
</glyph>
<glyph name="uniAB30" format="2">
  <advance width="552"/>
  <unicode hex="AB30"/>
  <anchor x="227" y="0" name="bottom"/>
  <anchor x="341" y="536" name="top"/>
  <anchor x="562" y="536" name="topright"/>
  <outline>
    <contour>
      <point x="12" y="247" type="line"/>
      <point x="537" y="247" type="line"/>
      <point x="550" y="309" type="line"/>
      <point x="25" y="309" type="line"/>
    </contour>
    <component base="uni0251"/>
  </outline>
</glyph>
<glyph name="uniAB44" format="2">
  <advance width="841"/>
  <unicode hex="AB44"/>
  <anchor x="516" y="0" name="bottom"/>
  <anchor x="573" y="268" name="center"/>
  <anchor x="630" y="536" name="top"/>
  <anchor x="878" y="536" name="topright"/>
  <outline>
    <contour>
      <point x="431" y="-40" type="line"/>
      <point x="800" y="544" type="line"/>
      <point x="753" y="572" type="line"/>
      <point x="384" y="-12" type="line"/>
    </contour>
    <component base="uniAB43"/>
  </outline>
</glyph>
<glyph name="uniAB61" format="2">
  <advance width="714"/>
  <unicode hex="AB61"/>
  <anchor x="461" y="0" name="bottom"/>
  <anchor x="543" y="536" name="top"/>
  <anchor x="754" y="536" name="topright"/>
  <outline>
    <contour>
      <point x="24" y="0" type="line"/>
      <point x="112" y="0" type="line"/>
      <point x="163" y="240" type="line"/>
      <point x="316" y="240" type="line"/>
      <point x="328" y="313" type="line"/>
      <point x="179" y="313" type="line"/>
      <point x="225" y="536" type="line"/>
      <point x="138" y="536" type="line"/>
    </contour>
    <component base="e" xOffset="236"/>
  </outline>
</glyph>
<glyph name="uniFE21" format="2">
  <unicode hex="FE21"/>
  <outline>
    <contour>
      <point x="332" y="587" type="curve"/>
      <point x="398" y="587" type="line"/>
      <point x="373" y="711"/>
      <point x="156" y="844"/>
      <point x="99" y="736" type="curve" smooth="yes"/>
      <point x="82" y="704" type="line"/>
      <point x="224" y="704"/>
      <point x="301" y="660"/>
    </contour>
  </outline>
</glyph>
<glyph name="uniFE22" format="2">
  <unicode hex="FE22"/>
  <outline>
    <contour>
      <point x="-265" y="607" type="curve"/>
      <point x="-212" y="607" type="line"/>
      <point x="-196" y="642"/>
      <point x="-161" y="669"/>
      <point x="-93" y="669" type="curve" smooth="yes"/>
      <point x="-26" y="669"/>
      <point x="30" y="654"/>
      <point x="87" y="638" type="curve"/>
      <point x="88" y="705" type="line"/>
      <point x="33" y="720"/>
      <point x="-23" y="735"/>
      <point x="-88" y="735" type="curve" smooth="yes"/>
      <point x="-174" y="735"/>
      <point x="-240" y="693"/>
    </contour>
  </outline>
</glyph>
<glyph name="uniFE23" format="2">
  <unicode hex="FE23"/>
  <outline>
    <contour>
      <point x="260" y="608" type="curve" smooth="yes"/>
      <point x="344" y="608"/>
      <point x="405" y="647"/>
      <point x="438" y="736" type="curve"/>
      <point x="385" y="736" type="line"/>
      <point x="368" y="699"/>
      <point x="333" y="674"/>
      <point x="265" y="674" type="curve" smooth="yes"/>
      <point x="198" y="674"/>
      <point x="143" y="689"/>
      <point x="86" y="705" type="curve"/>
      <point x="85" y="638" type="line"/>
      <point x="139" y="623"/>
      <point x="194" y="608"/>
    </contour>
  </outline>
</glyph>
<glyph name="uniFE2E" format="2">
  <unicode hex="FE2E"/>
  <outline>
    <contour>
      <point x="-29" y="570" type="curve" smooth="yes"/>
      <point x="1" y="570"/>
      <point x="16" y="588"/>
      <point x="22" y="616" type="curve"/>
      <point x="223" y="616" type="line"/>
      <point x="224" y="669" type="line"/>
      <point x="-5" y="669" type="line" smooth="yes"/>
      <point x="-49" y="669"/>
      <point x="-69" y="648"/>
      <point x="-69" y="610" type="curve" smooth="yes"/>
      <point x="-69" y="589"/>
      <point x="-55" y="570"/>
    </contour>
  </outline>
</glyph>
<glyph name="uniFE2F" format="2">
  <unicode hex="FE2F"/>
  <outline>
    <contour>
      <point x="-60" y="616" type="line"/>
      <point x="168" y="616" type="line" smooth="yes"/>
      <point x="213" y="616"/>
      <point x="233" y="638"/>
      <point x="233" y="678" type="curve" smooth="yes"/>
      <point x="233" y="701"/>
      <point x="219" y="715"/>
      <point x="193" y="715" type="curve" smooth="yes"/>
      <point x="163" y="715"/>
      <point x="148" y="698"/>
      <point x="142" y="669" type="curve"/>
      <point x="-59" y="669" type="line"/>
    </contour>
  </outline>
</glyph>
<glyph name="oslash.sc" format="2">
  <advance width="566"/>
  <anchor x="229" y="-32" name="bottom"/>
  <anchor x="364" y="597" name="top"/>
  <anchor x="345" y="286" name="center"/>
  <anchor x="611" y="571" name="topright"/>
  <outline>
    <contour>
      <point x="78" y="-32" type="line"/>
      <point x="568" y="566" type="line"/>
      <point x="524" y="597" type="line"/>
      <point x="32" y="-1" type="line"/>
    </contour>
    <component base="o.sc"/>
  </outline>
</glyph>
